# xmcd
#
# Track frame offsets:
#	150
#	12988
#	24844
#	36960
#	48744
#	61243
#	74666
#	86018
#	99093
#	112771
#	125758
#	136655
#	148472
#	159495
#	169819
#	183469
#	196470
#	209439
#	221279
#	233318
#	244751
#	256011
#	266388
#	278359
#	291833
#	303916
#	313996
#	324515
#	335596
#
# Disc length: 4612 seconds
#
# Revision: 0
# Processed by: cddbd v1.4PL0 Copyright (c) Steve Scherf et al.
# Submitted via: dBpowerAMP V4.0
#
DISCID=a012021d
DTITLE=Robert Johnson - Beg Borrow or Steal Disc 02
DYEAR=1900
DGENRE=Blues
TTITLE0=Come On In My Kitchen
TTITLE1=Hellhound On My Trail
TTITLE2=Cross Road Blues
TTITLE3=If I Had Possession Over Judgement Day
TTITLE4=Travelling Riverside Blues
TTITLE5=I Believe I'll Dust My Broom
TTITLE6=Walking Blues
TTITLE7=32-30 Blues
TTITLE8=Sweet Home Chicago
TTITLE9=Preaching Blues (Up Jumped the Devil)
TTITLE10=From Four Till Late
TTITLE11=Me and the Devil Blues
TTITLE12=Love In Vain
TTITLE13=Milkcow's Calf Blues
TTITLE14=Terraplane Blues
TTITLE15=Rambling On My Mind
TTITLE16=Kind Hearted Woman Blues
TTITLE17=I'm a Steady Rollin' Man
TTITLE18=Phonograph Blues
TTITLE19=Dead Shrimp Blues
TTITLE20=Stones In My Passway
TTITLE21=Stop Breakin' Down Blues
TTITLE22=When You Got a Good Friend
TTITLE23=They're Red Hot
TTITLE24=Last Fair Deal Gone Down
TTITLE25=Little Queen of Spades
TTITLE26=Malted Milk
TTITLE27=Drunken Hearted Man
TTITLE28=Honeymoon Blues
EXTD=
EXTT0=
EXTT1=
EXTT2=
EXTT3=
EXTT4=
EXTT5=
EXTT6=
EXTT7=
EXTT8=
EXTT9=
EXTT10=
EXTT11=
EXTT12=
EXTT13=
EXTT14=
EXTT15=
EXTT16=
EXTT17=
EXTT18=
EXTT19=
EXTT20=
EXTT21=
EXTT22=
EXTT23=
EXTT24=
EXTT25=
EXTT26=
EXTT27=
EXTT28=
PLAYORDER=
